<svg width="33" height="47" viewBox="0 0 33 47" fill="none" xmlns="http://www.w3.org/2000/svg">
<path d="M32.5145 46.3828H0.576965V39.6641L12.0457 28.0703C14.3582 25.6953 16.2124 23.7161 17.6082 22.1328C19.0249 20.5286 20.0457 19.0703 20.6707 17.7578C21.3165 16.4453 21.6395 15.0391 21.6395 13.5391C21.6395 11.7266 21.129 10.3724 20.1082 9.47656C19.1082 8.5599 17.7645 8.10156 16.077 8.10156C14.3061 8.10156 12.5874 8.50781 10.9207 9.32031C9.25405 10.1328 7.51447 11.2891 5.70197 12.7891L0.451965 6.57031C1.76447 5.44531 3.14988 4.38281 4.60822 3.38281C6.08738 2.38281 7.79572 1.58073 9.73322 0.976562C11.6915 0.351562 14.0353 0.0390625 16.7645 0.0390625C19.7645 0.0390625 22.3374 0.580729 24.4832 1.66406C26.6499 2.7474 28.3165 4.22656 29.4832 6.10156C30.6499 7.95573 31.2332 10.0599 31.2332 12.4141C31.2332 14.9349 30.7332 17.237 29.7332 19.3203C28.7332 21.4036 27.2749 23.4661 25.3582 25.5078C23.4624 27.5495 21.1707 29.8099 18.4832 32.2891L12.6082 37.8203V38.2578H32.5145V46.3828Z" fill="white"/>
</svg>
