<svg width="33" height="48" viewBox="0 0 33 48" fill="none" xmlns="http://www.w3.org/2000/svg">
<path d="M31.2007 11.6387C31.2007 13.7428 30.7632 15.5658 29.8882 17.1074C29.0132 18.6491 27.8257 19.9095 26.3257 20.8887C24.8465 21.8678 23.1799 22.5866 21.3257 23.0449V23.2324C24.9924 23.6908 27.7736 24.8158 29.6694 26.6074C31.5861 28.3991 32.5444 30.7949 32.5444 33.7949C32.5444 36.4616 31.8882 38.847 30.5757 40.9512C29.284 43.0553 27.284 44.7116 24.5757 45.9199C21.8674 47.1283 18.3778 47.7324 14.1069 47.7324C11.5861 47.7324 9.23193 47.5241 7.04443 47.1074C4.87777 46.7116 2.8361 46.097 0.919434 45.2637V37.0449C2.87777 38.0449 4.92985 38.8053 7.07568 39.3262C9.22152 39.8262 11.2215 40.0762 13.0757 40.0762C16.534 40.0762 18.9507 39.4824 20.3257 38.2949C21.7215 37.0866 22.4194 35.3991 22.4194 33.2324C22.4194 31.9616 22.0965 30.8887 21.4507 30.0137C20.8049 29.1387 19.6799 28.472 18.0757 28.0137C16.4924 27.5553 14.2736 27.3262 11.4194 27.3262H7.95068V19.9199H11.4819C14.2944 19.9199 16.4299 19.6595 17.8882 19.1387C19.3674 18.597 20.3674 17.8678 20.8882 16.9512C21.4299 16.0137 21.7007 14.9512 21.7007 13.7637C21.7007 12.1387 21.2007 10.8678 20.2007 9.95117C19.2007 9.03451 17.534 8.57617 15.2007 8.57617C13.7424 8.57617 12.409 8.76367 11.2007 9.13867C10.0132 9.49284 8.94027 9.93034 7.98193 10.4512C7.0236 10.9512 6.17985 11.4408 5.45068 11.9199L0.981934 5.26367C2.7736 3.97201 4.86735 2.89909 7.26318 2.04492C9.67985 1.19076 12.5549 0.763672 15.8882 0.763672C20.5965 0.763672 24.3257 1.71159 27.0757 3.60742C29.8257 5.50326 31.2007 8.18034 31.2007 11.6387Z" fill="white"/>
</svg>
