<svg width="75" height="83" viewBox="0 0 75 83" fill="none" xmlns="http://www.w3.org/2000/svg">
<g id="Vector">
<path d="M33.3996 1.87346C35.8432 0.4914 38.8325 0.491399 41.2762 1.87346L70.5804 18.447C73.0903 19.8665 74.642 22.5269 74.642 25.4104V58.2739C74.642 61.1574 73.0903 63.8178 70.5804 65.2374L41.2762 81.8109C38.8325 83.1929 35.8432 83.1929 33.3996 81.8109L4.09537 65.2374C1.58546 63.8178 0.0336761 61.1574 0.0336761 58.2739V25.4104C0.0336761 22.5269 1.58546 19.8665 4.09537 18.447L33.3996 1.87346Z" fill="url(#paint0_linear_3_205)" fill-opacity="0.8"/>
<path d="M45.3135 66.0191H35.6572V39.5816C35.6572 38.8525 35.6676 37.9566 35.6885 36.8941C35.7093 35.8108 35.7406 34.7066 35.7822 33.5816C35.8239 32.4358 35.8656 31.4045 35.9072 30.4879C35.6781 30.7587 35.2093 31.2275 34.501 31.8941C33.8135 32.54 33.1676 33.1233 32.5635 33.6441L27.3135 37.8629L22.6572 32.0504L37.376 20.3316H45.3135V66.0191Z" fill="white"/>
</g>
<defs>
<linearGradient id="paint0_linear_3_205" x1="59.2573" y1="70.0085" x2="13.8536" y2="16.4214" gradientUnits="userSpaceOnUse">
<stop stop-color="#00B7EC"/>
<stop offset="1" stop-color="#00B7EC" stop-opacity="0.33"/>
</linearGradient>
</defs>
</svg>
