<svg width="84" height="91" viewBox="0 0 84 91" fill="none" xmlns="http://www.w3.org/2000/svg">
<g id="Polygon 149" filter="url(#filter0_bd_3_220)">
<path d="M37.9685 1.96273C40.4122 0.580675 43.4015 0.580674 45.8451 1.96273L75.1493 18.5362C77.6592 19.9558 79.211 22.6162 79.211 25.4997L79.211 58.3632C79.211 61.2467 77.6592 63.9071 75.1493 65.3266L45.8451 81.9001C43.4015 83.2822 40.4122 83.2822 37.9685 81.9001L8.66434 65.3266C6.15442 63.9071 4.60264 61.2467 4.60264 58.3632L4.60264 25.4997C4.60264 22.6162 6.15442 19.9558 8.66434 18.5362L37.9685 1.96273Z" fill="url(#paint0_linear_3_220)" fill-opacity="0.8" shape-rendering="crispEdges"/>
<path d="M38.4608 2.83316C40.599 1.62386 43.2146 1.62386 45.3528 2.83316L74.657 19.4067C76.8532 20.6487 78.211 22.9766 78.211 25.4997L78.211 58.3632C78.211 60.8863 76.8532 63.2141 74.657 64.4562L45.3528 81.0297C43.2146 82.239 40.599 82.239 38.4608 81.0297L9.15662 64.4562C6.96045 63.2141 5.60264 60.8863 5.60264 58.3632L5.60264 25.4997C5.60264 22.9766 6.96045 20.6487 9.15662 19.4067L38.4608 2.83316Z" stroke="url(#paint1_linear_3_220)" stroke-opacity="0.5" stroke-width="2" shape-rendering="crispEdges"/>
</g>
<defs>
<filter id="filter0_bd_3_220" x="-7.39734" y="-11.0742" width="98.6084" height="106.011" filterUnits="userSpaceOnUse" color-interpolation-filters="sRGB">
<feFlood flood-opacity="0" result="BackgroundImageFix"/>
<feGaussianBlur in="BackgroundImageFix" stdDeviation="6"/>
<feComposite in2="SourceAlpha" operator="in" result="effect1_backgroundBlur_3_220"/>
<feColorMatrix in="SourceAlpha" type="matrix" values="0 0 0 0 0 0 0 0 0 0 0 0 0 0 0 0 0 0 127 0" result="hardAlpha"/>
<feOffset dy="4"/>
<feGaussianBlur stdDeviation="2"/>
<feComposite in2="hardAlpha" operator="out"/>
<feColorMatrix type="matrix" values="0 0 0 0 0 0 0 0 0 0 0 0 0 0 0 0 0 0 0.1 0"/>
<feBlend mode="normal" in2="effect1_backgroundBlur_3_220" result="effect2_dropShadow_3_220"/>
<feBlend mode="normal" in="SourceGraphic" in2="effect2_dropShadow_3_220" result="shape"/>
</filter>
<linearGradient id="paint0_linear_3_220" x1="67.2172" y1="70.9158" x2="21.6615" y2="10.5836" gradientUnits="userSpaceOnUse">
<stop stop-color="#00B7EC"/>
<stop offset="1" stop-color="#00B7EC" stop-opacity="0.33"/>
</linearGradient>
<linearGradient id="paint1_linear_3_220" x1="11.0213" y1="8.59946" x2="57.471" y2="84.9859" gradientUnits="userSpaceOnUse">
<stop stop-color="white"/>
<stop offset="1" stop-opacity="0"/>
</linearGradient>
</defs>
</svg>
